<svg width="200" height="180" viewBox="0 0 200 180" fill="none" xmlns="http://www.w3.org/2000/svg">
<g clip-path="url(#clip0_4365_4816)">
<path d="M154.8 180H88.6L88.3 179.5C85.2034 172.625 82.499 165.581 80.2 158.4C79.4 155.7 78.5 153 77.8 150.2C76.4 145.5 75.2 140.6 74 135.5L82.4 133.6L90 131.9L129.6 122.9C130.9 128.7 132.4 134.1 134 139.2C134.7 141.5 135.4 143.7 136.2 145.9C140.41 158.244 146.701 169.777 154.8 180Z" fill="#F43939"/>
<path d="M101.5 174.7C101.185 176.565 100.542 178.36 99.6 180H88.6L88.3 179.5C91.1 179.3 93.7 178.3 94.7 173.3C94.8055 172.846 94.9738 172.408 95.2 172C95.4814 171.619 95.8185 171.282 96.2 171C96.5871 170.732 97.0329 170.56 97.5 170.5C97.9613 170.4 98.4387 170.4 98.9 170.5C99.3544 170.606 99.792 170.774 100.2 171C100.581 171.282 100.919 171.619 101.2 172C101.468 172.387 101.64 172.833 101.7 173.3C101.6 173.8 101.6 174.3 101.5 174.7Z" fill="#F89999"/>
<path d="M94.7 147.7C94.7452 148.149 94.6975 148.603 94.5599 149.033C94.4223 149.463 94.1976 149.86 93.9 150.2C93.599 150.549 93.232 150.834 92.8201 151.04C92.4081 151.246 91.9595 151.368 91.5 151.4C89.1685 151.511 86.9009 152.198 84.9 153.4C82.9001 154.599 81.2729 156.33 80.2 158.4C79.4 155.7 78.5 153 77.8 150.2C81.3601 146.818 85.9987 144.8 90.9 144.5C91.3689 144.483 91.8382 144.517 92.3 144.6C92.7401 144.756 93.1471 144.994 93.5 145.3C93.8528 145.62 94.1561 145.991 94.4 146.4C94.5581 146.818 94.659 147.255 94.7 147.7Z" fill="#F89999"/>
<path d="M93.5 165.7C92.9407 165.71 92.3886 165.572 91.9 165.3C91.4382 165.049 91.0304 164.709 90.7 164.3C90.4218 163.944 90.2178 163.536 90.1 163.1C89.9638 162.646 89.9297 162.168 90 161.7C90.0604 161.233 90.2318 160.787 90.5 160.4C90.7456 160.021 91.0494 159.684 91.4 159.4C97.4 154.9 102.1 155.5 105.5 156C108.9 156.5 109.1 156.5 110.7 154.5C110.956 154.124 111.299 153.815 111.7 153.6C112.108 153.374 112.546 153.205 113 153.1C113.468 153.033 113.946 153.068 114.4 153.2C114.844 153.297 115.256 153.503 115.6 153.8C116.323 154.375 116.791 155.21 116.903 156.127C117.016 157.044 116.763 157.968 116.2 158.7C112.2 164 107.8 163.4 104.6 162.9C101.4 162.4 99.3 162.2 95.6 165C95.0082 165.481 94.2618 165.729 93.5 165.7Z" fill="#F89999"/>
<path d="M124.6 171.9C123.889 171.902 123.193 171.693 122.6 171.3C122.035 170.913 121.613 170.351 121.4 169.7C121.083 168.821 121.118 167.853 121.5 167C121.893 166.188 122.568 165.548 123.4 165.2C125.9 164.2 127.7 162.7 128.4 161C128.694 160.342 128.798 159.614 128.7 158.9C128.677 158.173 128.507 157.459 128.2 156.8C128.006 156.394 127.904 155.95 127.9 155.5C127.893 155.049 127.995 154.602 128.2 154.2C128.373 153.774 128.648 153.396 129 153.1C129.323 152.778 129.694 152.509 130.1 152.3C130.506 152.106 130.95 152.004 131.4 152C131.851 151.993 132.298 152.096 132.7 152.3C133.126 152.474 133.504 152.748 133.8 153.1C134.122 153.423 134.391 153.794 134.6 154.2C135.259 155.719 135.632 157.346 135.7 159C135.702 160.675 135.397 162.335 134.8 163.9C133.3 167.3 130.1 170.1 125.8 171.8L124.6 171.9Z" fill="#F89999"/>
<path d="M141.2 176.8C140.2 177.2 140.2 178.9 140.4 180H133.3C133.1 176.6 134 172.4 138.2 170.4C138.606 170.206 139.05 170.104 139.5 170.1C139.976 170.068 140.452 170.136 140.9 170.3C141.321 170.495 141.723 170.73 142.1 171C142.422 171.323 142.691 171.694 142.9 172.1C143.094 172.506 143.196 172.95 143.2 173.4C143.182 173.872 143.115 174.342 143 174.8C142.804 175.221 142.57 175.623 142.3 176C141.977 176.322 141.606 176.591 141.2 176.8Z" fill="#F89999"/>
<path d="M110.1 148.1H109.3C108.846 147.995 108.408 147.826 108 147.6C107.619 147.319 107.281 146.981 107 146.6C106.732 146.213 106.56 145.767 106.5 145.3C106.4 144.839 106.4 144.361 106.5 143.9C107.166 140.996 108.619 138.332 110.7 136.2C112.845 134.095 115.498 132.58 118.4 131.8C119.318 131.579 120.286 131.722 121.1 132.2C121.904 132.693 122.479 133.484 122.7 134.4C122.814 134.838 122.837 135.294 122.768 135.741C122.699 136.188 122.54 136.617 122.3 137C121.778 137.775 120.999 138.342 120.1 138.6C118.472 138.986 116.983 139.817 115.8 141C114.617 142.183 113.786 143.672 113.4 145.3C113.247 146.059 112.82 146.736 112.2 147.2C111.936 147.493 111.612 147.725 111.249 147.881C110.886 148.036 110.494 148.111 110.1 148.1Z" fill="#F89999"/>
<path d="M136.2 145.9C133.833 147.307 131.151 148.098 128.4 148.2C126.687 148.167 124.994 147.829 123.4 147.2C122.523 146.886 121.805 146.239 121.4 145.4C121.016 144.547 120.981 143.579 121.3 142.7C121.443 142.271 121.678 141.878 121.989 141.55C122.3 141.221 122.679 140.965 123.1 140.8C123.953 140.416 124.921 140.381 125.8 140.7C128.9 141.8 130.6 140.9 133 139.7L134 139.2C134.7 141.5 135.4 143.7 136.2 145.9Z" fill="#F89999"/>
<path d="M94.8 140.2C92.1089 140.273 89.4482 139.616 87.1 138.3C85.5974 137.381 84.2756 136.195 83.2 134.8C82.1699 133.39 81.4227 131.794 81 130.1C80.8638 129.646 80.8296 129.168 80.9 128.7C80.9729 128.25 81.1075 127.813 81.3 127.4C81.4876 126.98 81.8024 126.631 82.2 126.4C82.5559 126.122 82.9639 125.918 83.4 125.8C83.8613 125.713 84.331 125.68 84.8 125.7C85.2497 125.773 85.6871 125.908 86.1 126.1C86.5007 126.315 86.8437 126.624 87.1 127C87.3782 127.356 87.5822 127.764 87.7 128.2C87.8859 129.023 88.2252 129.803 88.7 130.5C89.1868 131.186 89.8408 131.737 90.6 132.1C93.2 133.6 97.2 133 98.3 132.6C99.2082 132.395 100.159 132.501 101 132.9C101.818 133.352 102.428 134.105 102.7 135C102.836 135.454 102.87 135.932 102.8 136.4C102.774 136.859 102.637 137.306 102.4 137.7C102.212 138.12 101.898 138.469 101.5 138.7C101.144 138.978 100.736 139.182 100.3 139.3C98.5403 139.946 96.6738 140.252 94.8 140.2Z" fill="#F89999"/>
<path d="M74.2 135.4L129.6 122.8L124 98.2L68.6 110.8L74.2 135.4Z" fill="#A5402D"/>
<path d="M74.1 135.5L129.5 122.9" stroke="black" stroke-width="2" stroke-miterlimit="10"/>
<path d="M126.8 110.8C122.589 91.8204 119.418 72.6252 117.3 53.3C117.13 51.4271 116.275 49.6827 114.9 48.4C114.222 47.7551 113.421 47.2542 112.545 46.9276C111.668 46.6011 110.734 46.4556 109.8 46.5C107.878 46.4932 106.022 47.2068 104.6 48.5C103.185 49.7944 102.325 51.586 102.2 53.5C100.2 85.1 102.7 118.3 102.7 118.3L126.8 110.8Z" fill="#A5402D"/>
<path d="M66.1 125.9C68.3 126.4 72.1 127.2 76.9 128C80.9871 128.736 85.186 128.565 89.2 127.5C93.2401 126.505 97.0233 124.664 100.3 122.1C103.587 119.552 106.31 116.352 108.3 112.7C110.289 109.059 111.482 105.037 111.8 100.9L114 71.3H66.5C64.4505 71.234 62.4399 71.8689 60.8 73.1C55.9 76.7 56 83.6 61.3 87.9C61.9609 88.428 62.3923 89.1909 62.5041 90.0294C62.6159 90.8679 62.3994 91.7172 61.9 92.4C58.5 97.4 57.5 102.7 61.3 107C61.8117 107.62 62.0942 108.396 62.1 109.2C62.0926 109.601 61.9995 109.996 61.8271 110.358C61.6546 110.72 61.4067 111.041 61.1 111.3C59.6914 112.913 58.8795 114.96 58.8 117.1C58.7782 119.223 59.524 121.283 60.9 122.9C62.234 124.471 64.0718 125.532 66.1 125.9Z" fill="#A5402D"/>
<path d="M69.4 74.5C77.2 75.4 85.4 77 90.7 78.1C91.5274 78.2584 92.3154 78.5784 93.0189 79.0417C93.7224 79.505 94.3277 80.1025 94.8 80.8C95.7733 82.1616 96.2015 83.8384 96 85.5C95.8142 87.1756 94.9906 88.7154 93.7 89.8C92.4326 90.9104 90.7829 91.4842 89.1 91.4L65.5 90.7" fill="#A5402D"/>
<path d="M69.4 74.5C77.2 75.4 85.4 77 90.7 78.1C91.5274 78.2584 92.3154 78.5784 93.0189 79.0417C93.7224 79.505 94.3277 80.1025 94.8 80.8C95.7733 82.1616 96.2015 83.8384 96 85.5V85.5C95.8142 87.1756 94.9906 88.7154 93.7 89.8C92.4326 90.9104 90.7829 91.4842 89.1 91.4L65.5 90.7" stroke="black" stroke-width="2" stroke-linecap="round" stroke-linejoin="round"/>
<path d="M67.2 90.8L93.6 91.5C94.5014 91.4965 95.3913 91.7019 96.2 92.1C97.0071 92.4821 97.7495 92.9883 98.4 93.6C98.9925 94.2453 99.4665 94.99 99.8 95.8C100.134 96.6236 100.271 97.514 100.2 98.4C100.181 100.072 99.5395 101.677 98.4 102.9C97.2572 104.139 95.6818 104.891 94 105L67.2 107.5" fill="#A5402D"/>
<path d="M67.2 90.8L93.6 91.5C94.5014 91.4965 95.3913 91.7019 96.2 92.1C97.0071 92.4821 97.7495 92.9883 98.4 93.6C98.9925 94.2453 99.4665 94.99 99.8 95.8C100.134 96.6236 100.271 97.514 100.2 98.4C100.181 100.072 99.5395 101.677 98.4 102.9C97.2572 104.139 95.6818 104.891 94 105L67.2 107.5" stroke="black" stroke-width="2" stroke-linecap="round" stroke-linejoin="round"/>
<path d="M73.1 121.6L91.3 117.1C92.1046 116.898 92.8554 116.522 93.5 116C94.1642 115.49 94.71 114.841 95.1 114.1C95.4829 113.351 95.7205 112.537 95.8 111.7C95.8636 110.847 95.7266 109.991 95.4 109.2C94.9202 108.008 94.0815 106.994 93 106.3C91.9052 105.592 90.5896 105.307 89.3 105.5L74.1 106.9" fill="#A5402D"/>
<path d="M73.1 121.6L91.3 117.1C92.1046 116.898 92.8554 116.522 93.5 116C94.1642 115.49 94.71 114.841 95.1 114.1C95.4829 113.351 95.7205 112.537 95.8 111.7C95.8636 110.847 95.7266 109.991 95.4 109.2V109.2C94.9202 108.008 94.0815 106.994 93 106.3C91.9052 105.592 90.5896 105.307 89.3 105.5L74.1 106.9" stroke="black" stroke-width="2" stroke-linecap="round" stroke-linejoin="round"/>
<path d="M140.8 90.8L151.9 83" stroke="#F89999" stroke-width="5" stroke-miterlimit="10" stroke-linecap="round"/>
<path d="M36.4 86.9L25.5 79.7" stroke="#F89999" stroke-width="5" stroke-miterlimit="10" stroke-linecap="round"/>
<path d="M130.9 58.1L136.9 50.6" stroke="#F89999" stroke-width="5" stroke-miterlimit="10" stroke-linecap="round"/>
<path d="M3.70001 38.1L5.40001 47V47.6C5.39625 47.7854 5.32516 47.9632 5.20001 48.1L0.200008 55.7C0.087735 55.9178 0.019758 56.1558 8.2273e-06 56.4C-0.023597 56.638 0.0107119 56.8782 0.100008 57.1C0.236142 57.3236 0.404636 57.5258 0.600008 57.7C0.687998 57.7977 0.796166 57.8752 0.917029 57.927C1.03789 57.9788 1.16856 58.0037 1.30001 58L10.3 59.1C10.6838 59.2003 11.0309 59.4085 11.3 59.7L17 66.7C17.1753 66.8671 17.3784 67.0024 17.6 67.1C17.8568 67.1887 18.1293 67.2228 18.4 67.2C18.5315 67.2037 18.6621 67.1788 18.783 67.127C18.9039 67.0752 19.012 66.9977 19.1 66.9C19.3394 66.7739 19.5191 66.5582 19.6 66.3L23.4 58.1C23.3981 57.9969 23.4252 57.8954 23.4783 57.807C23.5313 57.7186 23.6082 57.6469 23.7 57.6C23.9 57.5 24 57.4 24.2 57.3L32.6 54.1C32.8635 54.0281 33.1043 53.8905 33.3 53.7C33.4702 53.4898 33.6053 53.2534 33.7 53C33.7663 52.7301 33.7307 52.4453 33.6 52.2C33.4926 51.9296 33.321 51.6893 33.1 51.5L26.5 45.4C26.2348 45.0866 26.0618 44.7059 26 44.3L25.6 35.3C25.5942 35.0534 25.5253 34.8125 25.4 34.6C25.2739 34.3606 25.0582 34.1809 24.8 34.1C24.5432 34.0113 24.2707 33.9773 24 34C23.7534 34.0059 23.5125 34.0747 23.3 34.2L15.4 38.5C15.2 38.6 15.1 38.7 14.9 38.7H14.3L5.50001 36.3C5.24288 36.1992 4.95714 36.1992 4.70001 36.3C4.50001 36.4 4.20001 36.5 4.10001 36.7C3.93295 36.8754 3.79761 37.0784 3.70001 37.3C3.59915 37.5572 3.59915 37.8429 3.70001 38.1Z" fill="#F43939"/>
<path d="M196.3 38.1L194.6 47V47.6C194.604 47.7854 194.675 47.9632 194.8 48.1L199.8 55.7C199.912 55.9178 199.98 56.1558 200 56.4C200.024 56.638 199.989 56.8782 199.9 57.1C199.764 57.3236 199.595 57.5258 199.4 57.7C199.2 57.8 198.9 57.9 198.7 58L189.7 59.1C189.316 59.2003 188.969 59.4085 188.7 59.7L183 66.7C182.825 66.8671 182.622 67.0024 182.4 67.1C182.143 67.1887 181.871 67.2228 181.6 67.2C181.469 67.2037 181.338 67.1788 181.217 67.127C181.096 67.0752 180.988 66.9977 180.9 66.9C180.661 66.7739 180.481 66.5582 180.4 66.3L176.6 58.1C176.602 57.9969 176.575 57.8954 176.522 57.807C176.469 57.7186 176.392 57.6469 176.3 57.6C176.147 57.4781 175.979 57.3772 175.8 57.3L167.4 54.1C167.137 54.0281 166.896 53.8905 166.7 53.7C166.53 53.4898 166.395 53.2534 166.3 53C166.234 52.7301 166.269 52.4453 166.4 52.2C166.507 51.9296 166.679 51.6893 166.9 51.5L173.5 45.4C173.765 45.0866 173.938 44.7059 174 44.3L174.4 35.3C174.406 35.0534 174.475 34.8125 174.6 34.6C174.726 34.3606 174.942 34.1809 175.2 34.1C175.449 33.9751 175.722 33.9068 176 33.9C176.247 33.9059 176.488 33.9747 176.7 34.1L184.6 38.4C184.8 38.5 184.9 38.6 185.1 38.6H185.7L194.5 36.2C194.757 36.0992 195.043 36.0992 195.3 36.2C195.5 36.3 195.8 36.4 195.9 36.6C196.067 36.7754 196.202 36.9784 196.3 37.2C196.403 37.4912 196.403 37.8088 196.3 38.1Z" fill="#F43939"/>
<path d="M152.9 10.3001L154.8 19.2001C154.877 19.566 155.092 19.8882 155.4 20.1001L162.9 25.2001C163.139 25.3262 163.319 25.5419 163.4 25.8001C163.525 26.0487 163.593 26.3219 163.6 26.6001C163.594 26.8466 163.525 27.0876 163.4 27.3001C163.274 27.5394 163.058 27.7192 162.8 27.8001L155 32.3001C154.81 32.4016 154.641 32.5372 154.5 32.7001C154.4 32.9001 154.3 33.0001 154.3 33.2001L151.8 41.9001C151.7 42.1001 151.6 42.4001 151.4 42.5001C151.18 42.6548 150.945 42.7887 150.7 42.9001C150.59 42.9495 150.471 42.975 150.35 42.975C150.229 42.975 150.11 42.9495 150 42.9001C149.8 42.8001 149.5 42.7001 149.3 42.6001L142.6 36.5001C142.447 36.3782 142.279 36.2773 142.1 36.2001C141.911 36.1185 141.705 36.0842 141.5 36.1001L132.5 36.4001C132.229 36.4162 131.958 36.3823 131.7 36.3001C131.476 36.1639 131.274 35.9954 131.1 35.8001C130.9 35.6001 130.9 35.3001 130.8 35.1001C130.784 34.8295 130.818 34.5583 130.9 34.3001L134.6 26.0001C134.7 25.8001 134.7 25.6001 134.8 25.5001C134.816 25.2949 134.782 25.089 134.7 24.9001L131.6 16.4001C131.511 16.1433 131.477 15.8708 131.5 15.6001C131.496 15.4686 131.521 15.3379 131.573 15.2171C131.625 15.0962 131.702 14.988 131.8 14.9001C131.974 14.7047 132.176 14.5362 132.4 14.4001C132.657 14.3113 132.929 14.2773 133.2 14.3001L142.2 15.2001C142.292 15.2493 142.395 15.2751 142.5 15.2751C142.605 15.2751 142.708 15.2493 142.8 15.2001C142.979 15.1228 143.147 15.0219 143.3 14.9001L150.4 9.40005C150.488 9.30234 150.596 9.2249 150.717 9.1731C150.838 9.1213 150.969 9.09638 151.1 9.10005C151.338 9.08401 151.576 9.11808 151.8 9.20005C152 9.30005 152.3 9.40005 152.4 9.60005C152.63 9.78081 152.804 10.0237 152.9 10.3001Z" fill="#F43939"/>
<path d="M47.1 10.3001L45.2 19.2001C45.123 19.566 44.9081 19.8882 44.6 20.1001L37.1 25.2001C36.8606 25.3262 36.6809 25.5419 36.6 25.8001C36.4751 26.0487 36.4068 26.3219 36.4 26.6001C36.4058 26.8466 36.4747 27.0876 36.6 27.3001C36.7261 27.5394 36.9418 27.7192 37.2 27.8001L45 32.3001C45.1898 32.4016 45.3593 32.5372 45.5 32.7001C45.6 32.9001 45.7 33.0001 45.7 33.2001L48.2 41.9001C48.3 42.1001 48.4 42.4001 48.6 42.5001C48.7957 42.6905 49.0365 42.8282 49.3 42.9001C49.4101 42.9495 49.5293 42.975 49.65 42.975C49.7706 42.975 49.8899 42.9495 50 42.9001C50.2 42.8001 50.5 42.7001 50.7 42.6001L57.4 36.5001C57.5525 36.3782 57.7207 36.2773 57.9 36.2001C58.0889 36.1185 58.2948 36.0842 58.5 36.1001L67.5 36.4001C67.7705 36.4162 68.0418 36.3823 68.3 36.3001C68.5236 36.1639 68.7258 35.9954 68.9 35.8001C69.1 35.6001 69.1 35.3001 69.2 35.1001C69.2162 34.8295 69.1823 34.5583 69.1 34.3001L65.3 26.0001C65.2 25.8001 65.2 25.6001 65.1 25.5001C65.0842 25.2949 65.1185 25.089 65.2 24.9001L68.3 16.4001C68.3887 16.1433 68.4228 15.8708 68.4 15.6001C68.4037 15.4686 68.3787 15.3379 68.3269 15.2171C68.2751 15.0962 68.1977 14.988 68.1 14.9001C67.9258 14.7047 67.7236 14.5362 67.5 14.4001C67.2432 14.3113 66.9707 14.2773 66.7 14.3001L57.7 15.2001C57.6077 15.2493 57.5046 15.2751 57.4 15.2751C57.2954 15.2751 57.1923 15.2493 57.1 15.2001C56.9207 15.1228 56.7525 15.0219 56.6 14.9001L49.5 9.40005C49.412 9.30234 49.3038 9.2249 49.183 9.1731C49.0621 9.1213 48.9314 9.09638 48.8 9.10005C48.5622 9.08401 48.3237 9.11808 48.1 9.20005C47.9 9.30005 47.6 9.40005 47.5 9.60005C47.3298 9.81027 47.1947 10.0467 47.1 10.3001Z" fill="#F43939"/>
<path d="M101.1 0.7L105.9 8.4C106.104 8.7362 106.424 8.98545 106.8 9.1L115.6 11.2C115.853 11.2947 116.09 11.4298 116.3 11.6C116.467 11.7753 116.602 11.9784 116.7 12.2C116.789 12.4568 116.823 12.7293 116.8 13C116.804 13.1314 116.779 13.2621 116.727 13.383C116.675 13.5038 116.598 13.612 116.5 13.7L110.7 20.6C110.578 20.7525 110.477 20.9207 110.4 21.1C110.318 21.2889 110.284 21.4949 110.3 21.7L111 30.7C111.016 30.9705 110.982 31.2418 110.9 31.5C110.764 31.7236 110.595 31.9258 110.4 32.1C110.2 32.3 109.9 32.3 109.7 32.4C109.429 32.4162 109.158 32.3823 108.9 32.3L100.5 28.9C100.14 28.8 99.7598 28.8 99.4 28.9L91 32.3C90.7432 32.3887 90.4707 32.4228 90.2 32.4C90.0685 32.4037 89.9379 32.3787 89.817 32.327C89.6962 32.2752 89.588 32.1977 89.5 32.1C89.3046 31.9258 89.1361 31.7236 89 31.5C88.8629 31.2568 88.8269 30.9694 88.9 30.7L89.5 21.7C89.5079 21.3121 89.4038 20.9302 89.2 20.6L83.3 13.7C83.2023 13.612 83.1248 13.5038 83.073 13.383C83.0212 13.2621 82.9963 13.1314 83 13C82.9838 12.7295 83.0177 12.4582 83.1 12.2C83.2 12 83.3 11.7 83.5 11.6C83.6957 11.4095 83.9365 11.2719 84.2 11.2L93 9.1C93.376 8.98545 93.6964 8.7362 93.9 8.4L98.7 0.7C98.8261 0.460622 99.0418 0.28087 99.3 0.2C99.3 0.1 99.5 0 99.8 0C100.047 0.00584493 100.288 0.0746959 100.5 0.2C100.758 0.28087 100.974 0.460622 101.1 0.7Z" fill="#F43939"/>
</g>
<defs>
<clipPath id="clip0_4365_4816">
<rect width="200" height="180" fill="white"/>
</clipPath>
</defs>
</svg>
